<svg width="39" height="39" viewBox="0 0 39 39" fill="none" xmlns="http://www.w3.org/2000/svg">
<g clip-path="url(#clip0)">
<path d="M28.6339 26.3024L24.1788 21.8473L23.8648 22.1614L22.7736 21.0702C25.3878 17.6239 25.1248 12.69 21.9808 9.54595C18.5463 6.11145 12.9804 6.11145 9.54591 9.54595C6.11142 12.9805 6.11142 18.5463 9.54591 21.9808C12.69 25.1248 17.6239 25.3878 21.0701 22.7737L22.1613 23.8649L21.8473 24.1789L26.3023 28.6339C26.95 29.2816 27.9941 29.2816 28.6417 28.6339C29.2815 27.9941 29.2776 26.9461 28.6339 26.3024ZM20.2694 20.2773C17.7769 22.7697 13.7301 22.7737 11.2337 20.2773C8.74126 17.7848 8.73733 13.738 11.2337 11.2416C13.7262 8.74915 17.773 8.74522 20.2694 11.2416C22.7658 13.738 22.7619 17.7848 20.2694 20.2773Z" fill="#00635D"/>
<path d="M14.2168 18.77C13.8126 19.1743 13.1531 19.1743 12.7488 18.77C11.0924 17.1136 11.0924 14.4131 12.7488 12.7567C13.1531 12.3524 13.8126 12.3524 14.2169 12.7567C14.6211 13.161 14.6211 13.8204 14.2169 14.2247C13.369 15.0726 13.369 16.4542 14.2168 17.302C14.6211 17.7063 14.6211 18.3657 14.2168 18.77Z" fill="#003D39"/>
</g>
<defs>
<clipPath id="clip0">
<rect width="27" height="27" fill="white" transform="translate(0 19.0919) rotate(-45)"/>
</clipPath>
</defs>
</svg>
